<svg width="25" height="19" viewBox="0 0 25 19" fill="none" xmlns="http://www.w3.org/2000/svg">
<path d="M0 18.75V0H0.878906V18.75H0ZM1.31138 18.7367V0H1.75781V18.7367H1.31138ZM2.63672 18.7367V0H3.06919V18.7367H2.63672ZM4.827 18.7367V0H5.25947V18.7367H4.827ZM6.58481 18.7367V0H7.44976V18.7367H6.58481ZM8.7751 18.7367V0H9.20757V18.7367H8.7751ZM9.654 18.7367V0H10.0865V18.7367H9.654ZM10.5329 18.7367V0H10.9654V18.7367H10.5329ZM12.2768 18.7367V0H13.1557V18.7367H12.2768ZM14.4671 18.7367V0H15.346V18.7367H14.4671ZM16.2249 18.7367V0H17.1038V18.7367H16.2249ZM17.9827 18.7367V0H18.8617V18.7367H17.9827ZM19.2941 18.7367V0H20.173V18.7367H19.2941ZM21.4983 18.7367V0H22.8097V18.7367H21.4983ZM23.2422 18.7367V0H23.6886V18.7367H23.2422ZM24.1211 18.75V0H25V18.75H24.1211Z" fill="black"/>
</svg>
