<svg width="26" height="29" viewBox="0 0 26 29" fill="none" xmlns="http://www.w3.org/2000/svg">
<g filter="url(#filter0_d_182_2756)">
<path d="M21.3571 1.31251H16.5357L16.158 0.545515C16.078 0.38154 15.9548 0.243608 15.8022 0.147236C15.6496 0.0508642 15.4736 -0.000124194 15.2942 7.19115e-06H10.7018C10.5227 -0.000695428 10.3471 0.0501028 10.1951 0.146582C10.043 0.243061 9.92062 0.381319 9.84196 0.545515L9.46429 1.31251H4.64286C4.47236 1.31251 4.30885 1.38165 4.18829 1.50472C4.06773 1.62779 4 1.79471 4 1.96876V3.28126C4 3.4553 4.06773 3.62222 4.18829 3.74529C4.30885 3.86837 4.47236 3.93751 4.64286 3.93751H21.3571C21.5276 3.93751 21.6912 3.86837 21.8117 3.74529C21.9323 3.62222 22 3.4553 22 3.28126V1.96876C22 1.79471 21.9323 1.62779 21.8117 1.50472C21.6912 1.38165 21.5276 1.31251 21.3571 1.31251ZM6.1375 19.1543C6.16816 19.6541 6.38426 20.1232 6.74181 20.4661C7.09936 20.809 7.57147 20.9999 8.06205 21H17.9379C18.4285 20.9999 18.9006 20.809 19.2582 20.4661C19.6157 20.1232 19.8318 19.6541 19.8625 19.1543L20.7143 5.25H5.28571L6.1375 19.1543Z" fill="#283C8C"/>
</g>
<defs>
<filter id="filter0_d_182_2756" x="0" y="0" width="26" height="29" filterUnits="userSpaceOnUse" color-interpolation-filters="sRGB">
<feFlood flood-opacity="0" result="BackgroundImageFix"/>
<feColorMatrix in="SourceAlpha" type="matrix" values="0 0 0 0 0 0 0 0 0 0 0 0 0 0 0 0 0 0 127 0" result="hardAlpha"/>
<feOffset dy="4"/>
<feGaussianBlur stdDeviation="2"/>
<feComposite in2="hardAlpha" operator="out"/>
<feColorMatrix type="matrix" values="0 0 0 0 0 0 0 0 0 0 0 0 0 0 0 0 0 0 0.25 0"/>
<feBlend mode="normal" in2="BackgroundImageFix" result="effect1_dropShadow_182_2756"/>
<feBlend mode="normal" in="SourceGraphic" in2="effect1_dropShadow_182_2756" result="shape"/>
</filter>
</defs>
</svg>
