<svg width="160" height="70" viewBox="0 0 160 70" fill="none" xmlns="http://www.w3.org/2000/svg">
<g clip-path="url(#clip0_55_2005)">
<path d="M144.747 11.8057V93.9502C144.747 94.5287 144.412 94.9974 143.999 94.9974H135.091C134.675 94.9974 134.34 94.5287 134.34 93.9502V11.8057C134.34 11.2246 134.675 10.7559 135.091 10.7559H143.999C144.412 10.7559 144.747 11.2246 144.747 11.8057Z" fill="#659382"/>
<path d="M144.193 95C144.039 95 143.901 94.925 143.801 94.8045C143.702 94.684 143.639 94.518 143.639 94.3332V11.4254C143.639 11.0558 143.888 10.7559 144.193 10.7559C144.347 10.7559 144.485 10.8309 144.585 10.9514C144.685 11.0746 144.747 11.2406 144.747 11.4254V94.3305C144.747 94.7001 144.499 94.9974 144.193 94.9974V95Z" fill="#8DB7A9"/>
<path d="M134.894 95C134.74 95 134.602 94.925 134.502 94.8045C134.402 94.684 134.34 94.518 134.34 94.3332V11.4254C134.34 11.0558 134.589 10.7559 134.894 10.7559C135.048 10.7559 135.186 10.8309 135.286 10.9514C135.386 11.0746 135.448 11.2406 135.448 11.4254V94.3305C135.448 94.7001 135.202 94.9974 134.894 94.9974V95Z" fill="#8DB7A9"/>
<path d="M143.639 11.5352C143.639 11.5352 139.228 14.0473 135.451 11.5352V93.9581C135.451 93.9581 140.3 90.0157 143.639 93.9581V11.5352Z" fill="#F4F0E2"/>
<path d="M142.78 90.6828C142.999 80.626 143.14 70.5665 143.199 60.5097C143.259 50.5037 143.237 40.4951 143.137 30.4892C143.08 24.8435 142.999 19.2004 142.891 13.5547C142.891 13.4395 142.626 13.4449 142.629 13.56C142.821 23.6169 142.932 33.6763 142.961 43.7331C142.991 53.7391 142.942 63.7477 142.813 73.7536C142.74 79.3993 142.64 85.0424 142.518 90.6881C142.518 90.8033 142.78 90.7979 142.78 90.6828Z" fill="#DBC6AD"/>
<path d="M140.641 91.2853C140.497 81.132 140.427 70.9788 140.435 60.8256C140.441 50.7233 140.522 40.6209 140.673 30.5213C140.759 24.822 140.87 19.1253 141.003 13.426C141.005 13.3109 140.743 13.3162 140.741 13.4314C140.503 23.5846 140.338 33.7378 140.249 43.8911C140.16 53.9934 140.146 64.0957 140.206 74.1954C140.238 79.8947 140.297 85.5913 140.376 91.2906C140.376 91.4058 140.641 91.4004 140.638 91.2853H140.641Z" fill="#DBC6AD"/>
<path d="M138.744 91.6816C138.271 81.4454 137.96 71.2065 137.817 60.9649C137.674 50.7768 137.696 40.5861 137.882 30.3981C137.987 24.6505 138.144 18.903 138.352 13.1582C138.358 13.043 138.093 13.0484 138.09 13.1636C137.717 23.4025 137.509 33.6414 137.469 43.883C137.428 54.0711 137.55 64.2618 137.839 74.4471C138.001 80.1947 138.214 85.9395 138.482 91.6843C138.487 91.7995 138.749 91.7941 138.744 91.679V91.6816Z" fill="#DBC6AD"/>
<path d="M136.923 91.9495C136.82 81.6382 136.718 71.3297 136.615 61.0184C136.512 50.7607 136.412 40.5031 136.31 30.2454C136.253 24.4604 136.196 18.6727 136.137 12.8877C136.137 12.7725 135.872 12.7779 135.875 12.8931L136.183 43.8241C136.285 54.0818 136.385 64.3394 136.488 74.5971C136.545 80.3821 136.602 86.1698 136.661 91.9548C136.661 92.07 136.926 92.0646 136.923 91.9495Z" fill="#DBC6AD"/>
<path d="M140.211 91.0765C139.406 80.9956 138.917 70.9066 138.755 60.8123C138.593 50.718 138.752 40.621 139.233 30.5321C139.503 24.8703 139.876 19.2085 140.349 13.5547C140.36 13.4395 140.095 13.4476 140.087 13.56C139.244 23.6383 138.722 33.7299 138.522 43.8215C138.323 53.9158 138.447 64.0128 138.893 74.1017C139.144 79.7636 139.495 85.4254 139.949 91.0818C139.957 91.197 140.222 91.1916 140.211 91.0765Z" fill="#DBC6AD"/>
<path d="M61.7951 10.9139L57.0725 93.6743C57.0509 94.0653 57.3211 94.4028 57.6723 94.4322L64.2401 94.9813C64.5967 95.0107 64.8993 94.7215 64.9209 94.3305L69.6435 11.57C69.6651 11.179 69.3977 10.8442 69.0437 10.8121L62.4759 10.2631C62.122 10.2336 61.8167 10.5228 61.7951 10.9139Z" fill="#963833"/>
<path d="M57.4508 94.4135C57.567 94.4242 57.675 94.3572 57.7588 94.2421C57.8398 94.1269 57.8966 93.9662 57.9074 93.7814L62.6353 10.9487C62.657 10.5791 62.4868 10.263 62.2544 10.2443C62.1382 10.2336 62.0302 10.3005 61.9464 10.4157C61.8654 10.5309 61.8086 10.6942 61.7978 10.879L57.0698 93.7118C57.0482 94.0814 57.2184 94.3947 57.4508 94.4135Z" fill="#BC534B"/>
<path d="M64.4644 94.9972C64.5806 95.0079 64.6887 94.941 64.7724 94.8258C64.8535 94.7106 64.9102 94.5499 64.921 94.3651L69.649 11.5324C69.6706 11.1628 69.5004 10.8468 69.2681 10.828C69.1519 10.8173 69.0438 10.8843 68.9628 10.9994C68.8817 11.1146 68.825 11.278 68.8142 11.4628L64.0862 94.2955C64.0646 94.6651 64.2348 94.9785 64.4644 94.9972Z" fill="#BC534B"/>
<path d="M62.6272 11.0583C62.6272 11.0583 65.5559 12.5769 68.8033 11.5753L64.105 93.9259C64.105 93.9259 61.2007 92.335 57.929 93.4117L62.6272 11.061V11.0583Z" fill="#F4F0E2"/>
<path d="M58.9719 90.8113C59.6986 80.6795 60.3498 70.5396 60.9225 60.3945C61.4926 50.3002 61.9843 40.2005 62.4003 30.0955C62.6354 24.3935 62.8461 18.6915 63.0298 12.9869C63.0325 12.8717 63.3081 12.9012 63.3027 13.0163C62.9704 23.1803 62.5624 33.3388 62.0761 43.4921C61.5925 53.5917 61.0306 63.686 60.393 73.775C60.0337 79.4662 59.65 85.1548 59.2394 90.8407C59.2313 90.9559 58.9584 90.9264 58.9665 90.8113H58.9719Z" fill="#DBC6AD"/>
<path d="M60.9279 91.3736C62.0058 81.1883 62.9109 70.9841 63.6431 60.764C64.3725 50.5974 64.9291 40.4147 65.3181 30.2186C65.537 24.4684 65.6991 18.7129 65.8098 12.9519C65.8098 12.8368 66.0854 12.8662 66.0827 12.9814C65.8855 23.2418 65.518 33.4914 64.9777 43.7277C64.4401 53.9103 63.7295 64.0796 62.8515 74.2329C62.3543 79.9589 61.8032 85.6824 61.2007 91.3977C61.1872 91.5129 60.9143 91.4834 60.9279 91.3683V91.3736Z" fill="#DBC6AD"/>
<path d="M62.8083 91.7968C63.5026 81.5043 64.197 71.2118 64.8913 60.9193C65.5829 50.6804 66.2719 40.4388 66.9635 30.1999C67.3525 24.4229 67.7416 18.6486 68.1333 12.8716C68.1414 12.7565 68.4143 12.7859 68.4062 12.9011L66.3232 43.7786C65.6316 54.0175 64.9426 64.2591 64.251 74.498C63.8619 80.275 63.4729 86.0493 63.0812 91.8263C63.073 91.9414 62.8002 91.912 62.8083 91.7968Z" fill="#DBC6AD"/>
<path d="M59.4338 90.6426C60.8468 80.642 61.9302 70.6013 62.6759 60.5311C63.4215 50.4609 63.8295 40.3585 63.9024 30.2375C63.9429 24.5569 63.8781 18.8683 63.7079 13.177C63.7052 13.0619 63.9781 13.0913 63.9808 13.2065C64.2834 23.349 64.2536 33.4755 63.8835 43.5778C63.5161 53.6801 62.8109 63.7557 61.7708 73.7991C61.1872 79.4341 60.4983 85.0611 59.704 90.672C59.6878 90.7872 59.4149 90.7578 59.4311 90.6426H59.4338Z" fill="#DBC6AD"/>
<path d="M15.6915 18.7744V94.9972H0V18.7744C0 18.7744 0.864544 18.4637 2.31265 18.1557C4.80362 17.6201 9.03178 17.0871 13.5571 18.1557C14.2623 18.3191 14.9755 18.5253 15.6888 18.7744H15.6915Z" fill="#C1645D"/>
<path d="M9.45323 81.5417H6.23551C6.14906 81.5417 6.07071 81.4774 6.04639 81.3864L2.80706 69.3557C2.80165 69.3369 2.79895 69.3155 2.79895 69.2941V44.9783C2.79895 44.9569 2.80165 44.9355 2.80706 44.9167L6.04639 33.1431C6.07071 33.0521 6.14906 32.9905 6.23551 32.9905H9.45323C9.53969 32.9905 9.61804 33.0548 9.64235 33.1458L12.8817 45.1765C12.8871 45.1952 12.8898 45.2167 12.8898 45.2381V69.5539C12.8898 69.5753 12.8871 69.5967 12.8817 69.6155L9.64235 81.389C9.61804 81.4801 9.53969 81.5417 9.45323 81.5417ZM6.3841 81.1105H9.31004L12.498 69.5191V45.2649L9.30734 33.419H6.3814L3.1907 45.0104V69.2646L6.3814 81.1105H6.3841Z" fill="#FFAE64"/>
<path d="M15.2024 20.3733H0.488972C0.380904 20.3733 0.291748 20.2769 0.291748 20.1564C0.291748 20.0359 0.380904 19.9395 0.488972 19.9395H15.2024C15.3105 19.9395 15.3996 20.0359 15.3996 20.1564C15.3996 20.2769 15.3105 20.3733 15.2024 20.3733Z" fill="#FFAE64"/>
<path d="M23.5373 11.3476V94.9972H15.6915V11.3476C15.6915 11.3476 20.5843 10.5924 23.5373 11.3476Z" fill="#8DB7A9"/>
<path d="M17.5287 18.3486L16.91 87.758L18.7661 85.4761L19.0579 87.2947L20.2953 85.5484L20.7681 86.7242L21.3165 86.0466L22.1162 87.5812L21.5948 18.2522L20.6978 19.1574L20.1386 18.4665L19.5118 19.369L18.6823 18.3941L17.5287 18.3486Z" fill="#FFDEC0"/>
<path d="M31.383 5.58958V95.0001H23.5372V5.58958C23.5372 5.58958 28.43 4.83431 31.383 5.58958Z" fill="#659382"/>
<path d="M45.3453 13.0163V95.0001H31.3856V13.0163C31.3856 13.0163 32.1529 12.7057 33.4416 12.3977C35.6597 11.862 39.4205 11.329 43.4487 12.3977C44.0755 12.561 44.7104 12.7673 45.3453 13.0163Z" fill="#BC534B"/>
<path d="M45.3453 27.2405V29.5706H31.3829V27.5297L45.3453 27.2405Z" fill="#FFAE64"/>
<path d="M45.3453 47.1453V49.1888L31.3829 49.4753V47.1453H45.3453Z" fill="#FFAE64"/>
<path d="M57.068 11.6772H45.3453V95.0001H57.068V11.6772Z" fill="#FFAE64"/>
<mask id="mask0_55_2005" style="mask-type:luminance" maskUnits="userSpaceOnUse" x="45" y="11" width="13" height="84">
<path d="M57.068 11.6772H45.3453V95.0001H57.068V11.6772Z" fill="white"/>
</mask>
<g mask="url(#mask0_55_2005)">
<path d="M57.53 14.5752H44.8806V15.5635H57.53V14.5752Z" fill="#F98C3A"/>
<path d="M57.5732 58.6458H44.9238V59.634H57.5732V58.6458Z" fill="#F98C3A"/>
<path d="M57.3327 64.5459H44.6833V65.5342H57.3327V64.5459Z" fill="#F98C3A"/>
<path d="M44.8428 60.7374V63.7584L57.3327 63.9593L57.4246 60.4963L44.8428 60.7374Z" fill="#FFDEC0"/>
</g>
<path d="M83.6131 13.0163V95.0001H69.6534V13.0163C69.6534 13.0163 70.4207 12.7057 71.7094 12.3977C73.9275 11.862 77.6883 11.329 81.7165 12.3977C82.3433 12.561 82.9782 12.7673 83.6131 13.0163Z" fill="#7CA596"/>
<path d="M83.6131 26.8655V27.8189L69.6508 28.1055V26.8655H83.6131Z" fill="#FFAE64"/>
<path d="M82.3541 54.1943H71.2312V31.0837H82.3541V54.1943ZM71.7526 53.281H81.8273V31.9943H71.7526V53.281Z" fill="#FFAE64"/>
<path d="M83.6131 15.74V16.98H69.6508V16.0292L83.6131 15.74Z" fill="#FFAE64"/>
<path d="M83.6131 60.4187V61.3721H69.6508V60.1321L83.6131 60.4187Z" fill="#FFAE64"/>
<path d="M95.3385 11.5994H83.6132V94.9999H95.3385V11.5994Z" fill="#E08D86"/>
<path d="M95.3385 14.267L83.6132 14.5562V13.0671H95.3385V14.267Z" fill="#C1645D"/>
<path d="M106.961 13.0163V95.0001H95.3385V13.0163C95.3385 13.0163 95.9788 12.7057 97.0514 12.3977C98.8993 11.862 102.031 11.329 105.383 12.3977C105.905 12.561 106.432 12.7673 106.964 13.0163H106.961Z" fill="#FFAE64"/>
<path d="M95.3385 14.5563V16.2704L106.961 16.6507V14.2483L95.3385 14.5563Z" fill="#F98C3A"/>
<path d="M118.649 0.356153V94.9999H106.964V0.356153C106.964 0.356153 113.662 -0.444642 118.649 0.356153Z" fill="#659382"/>
<path d="M106.964 3.89136V5.22244H118.649V4.20203L106.964 3.89136Z" fill="#FFAE64"/>
<path d="M106.964 6.8536L118.649 6.52686V7.76956L106.964 7.949V6.8536Z" fill="#FFAE64"/>
<path d="M118.649 53.8808H106.964V40.7842L118.649 41.3359V53.8808Z" fill="#7CA596"/>
<path d="M106.964 22.1731V23.539L118.649 24.5219V22.1731H106.964Z" fill="#7CA596"/>
<path d="M134.34 18.7744V94.9972H118.649V18.7744C118.649 18.7744 119.513 18.4637 120.961 18.1557C123.452 17.6201 127.681 17.0871 132.206 18.1557C132.911 18.3191 133.624 18.5253 134.338 18.7744H134.34Z" fill="#E5846A"/>
<path d="M134.34 21.9963H118.649V23.2926H134.34V21.9963Z" fill="#FFBB8D"/>
<path d="M134.34 28.8179H118.649V29.2973H134.34V28.8179Z" fill="#FFBB8D"/>
<path d="M118.649 37.1096V38.43L134.34 38.6147V37.0935L118.649 37.1096Z" fill="#FFBB8D"/>
<path d="M118.649 47.4531V49.036L134.34 49.0869V47.7665L118.649 47.4531Z" fill="#FFBB8D"/>
<path d="M134.34 67.6495V66.0667L118.649 65.7292V67.0496L134.34 67.6495Z" fill="#FFBB8D"/>
<path d="M118.649 55.5439V56.634H134.34V55.3538L118.649 55.5439Z" fill="#FFBB8D"/>
<path d="M152.555 10.9057L160.009 94.1536L152.201 94.9972L144.747 11.7493C144.747 11.7493 149.551 10.4691 152.555 10.9057Z" fill="#C1645D"/>
</g>
<defs>
<clipPath id="clip0_55_2005">
<path d="M0 10C0 4.47715 4.47715 0 10 0H150C155.523 0 160 4.47715 160 10V60C160 65.5229 155.523 70 150 70H0V10Z" fill="white"/>
</clipPath>
</defs>
</svg>
