<svg width="36" height="35" viewBox="0 0 36 35" fill="none" xmlns="http://www.w3.org/2000/svg">
<path d="M5.17566 32.8125H4.08191C3.50175 32.8125 2.94535 32.582 2.53511 32.1718C2.12488 31.7616 1.89441 31.2052 1.89441 30.625V7.65625C1.89441 7.07609 2.12488 6.51969 2.53511 6.10945C2.94535 5.69922 3.50175 5.46875 4.08191 5.46875H5.17566C5.75582 5.46875 6.31222 5.69922 6.72246 6.10945C7.13269 6.51969 7.36316 7.07609 7.36316 7.65625V30.625C7.36316 31.2052 7.13269 31.7616 6.72246 32.1718C6.31222 32.582 5.75582 32.8125 5.17566 32.8125Z" fill="white"/>
<path d="M17.2069 12.0312C17.2069 11.4511 16.9764 10.8947 16.5662 10.4845C16.156 10.0742 15.5996 9.84375 15.0194 9.84375H10.6444C10.0642 9.84375 9.50785 10.0742 9.09761 10.4845C8.68738 10.8947 8.45691 11.4511 8.45691 12.0312V13.9453C8.45691 14.0178 8.48572 14.0874 8.537 14.1387C8.58828 14.1899 8.65783 14.2188 8.73035 14.2188H16.9335C17.006 14.2188 17.0755 14.1899 17.1268 14.1387C17.1781 14.0874 17.2069 14.0178 17.2069 13.9453V12.0312Z" fill="white"/>
<path d="M8.45691 30.625C8.45691 31.2052 8.68738 31.7616 9.09761 32.1718C9.50785 32.582 10.0642 32.8125 10.6444 32.8125H15.0194C15.5996 32.8125 16.156 32.582 16.5662 32.1718C16.9764 31.7616 17.2069 31.2052 17.2069 30.625V28.5742C17.2069 28.538 17.1925 28.5032 17.1669 28.4775C17.1412 28.4519 17.1065 28.4375 17.0702 28.4375H8.59363C8.55737 28.4375 8.52259 28.4519 8.49695 28.4775C8.47131 28.5032 8.45691 28.538 8.45691 28.5742V30.625Z" fill="white"/>
<path d="M17.0702 16.4062H8.59363C8.51812 16.4062 8.45691 16.4675 8.45691 16.543V26.1133C8.45691 26.1888 8.51812 26.25 8.59363 26.25H17.0702C17.1457 26.25 17.2069 26.1888 17.2069 26.1133V16.543C17.2069 16.4675 17.1457 16.4062 17.0702 16.4062Z" fill="white"/>
<path d="M22.6757 32.8125H20.4882C19.908 32.8125 19.3516 32.582 18.9414 32.1718C18.5311 31.7616 18.3007 31.2052 18.3007 30.625V4.375C18.3007 3.79484 18.5311 3.23844 18.9414 2.8282C19.3516 2.41797 19.908 2.1875 20.4882 2.1875H22.6757C23.2558 2.1875 23.8122 2.41797 24.2225 2.8282C24.6327 3.23844 24.8632 3.79484 24.8632 4.375V30.625C24.8632 31.2052 24.6327 31.7616 24.2225 32.1718C23.8122 32.582 23.2558 32.8125 22.6757 32.8125Z" fill="white"/>
<path d="M34.6994 30.4507L32.4962 7.20849C32.395 6.13867 31.3382 5.36279 30.1357 5.47832L27.9585 5.68339C26.756 5.79755 25.8632 6.75732 25.9644 7.82714L28.1676 31.0693C28.2688 32.1392 29.3257 32.915 30.5281 32.7995L32.7053 32.5944C33.9078 32.4803 34.8006 31.5205 34.6994 30.4507Z" fill="white"/>
</svg>
