<svg width="25" height="25" viewBox="0 0 25 25" fill="none" xmlns="http://www.w3.org/2000/svg">
<path fill-rule="evenodd" clip-rule="evenodd" d="M25 12.5C25 19.4035 19.4035 25 12.5 25C10.5004 25 8.61046 24.5305 6.93441 23.6956C6.48901 23.4739 5.97991 23.4 5.49924 23.5286L2.71669 24.2731C1.50876 24.5963 0.403688 23.4913 0.726888 22.2834L1.4714 19.5007C1.60001 19.0201 1.52617 18.511 1.30432 18.0656C0.469525 16.3895 0 14.4996 0 12.5C0 5.59644 5.59644 0 12.5 0C19.4035 0 25 5.59644 25 12.5ZM17.5 13.75C16.8096 13.75 16.25 13.1904 16.25 12.5C16.25 11.8096 16.8096 11.25 17.5 11.25C18.1904 11.25 18.75 11.8096 18.75 12.5C18.75 13.1904 18.1904 13.75 17.5 13.75ZM11.25 12.5C11.25 13.1904 11.8096 13.75 12.5 13.75C13.1904 13.75 13.75 13.1904 13.75 12.5C13.75 11.8096 13.1904 11.25 12.5 11.25C11.8096 11.25 11.25 11.8096 11.25 12.5ZM7.5 13.75C6.80965 13.75 6.25 13.1904 6.25 12.5C6.25 11.8096 6.80965 11.25 7.5 11.25C8.19035 11.25 8.75 11.8096 8.75 12.5C8.75 13.1904 8.19035 13.75 7.5 13.75Z" fill="#283C8C"/>
</svg>
