<svg width="30" height="29" viewBox="0 0 30 29" fill="none" xmlns="http://www.w3.org/2000/svg">
<path d="M0.800659 14.7957C0.800659 11.4775 0.800659 9.81836 1.5535 8.44297C2.30634 7.06761 3.68174 6.21399 6.4325 4.50679L9.3325 2.70696C12.2403 0.90232 13.6942 0 15.3007 0C16.9071 0 18.361 0.90232 21.2689 2.70696L24.1689 4.50677C26.9197 6.21399 28.295 7.06761 29.0478 8.44297C29.8007 9.81836 29.8007 11.4775 29.8007 14.7957V17.0013C29.8007 22.6574 29.8007 25.4856 28.1018 27.2427C26.4032 29 23.6689 29 18.2007 29H12.4007C6.93236 29 4.19823 29 2.49944 27.2427C0.800659 25.4856 0.800659 22.6574 0.800659 17.0013V14.7957Z" fill="white"/>
<path d="M19.8007 24H10.8007" stroke="#283C8C" stroke-width="3" stroke-linecap="round"/>
</svg>
