<svg width="25" height="25" viewBox="0 0 25 25" fill="none" xmlns="http://www.w3.org/2000/svg">
<path d="M12.1094 0C18.7988 0 24.2187 5.41992 24.2187 12.1094C24.2187 18.7988 18.7988 24.2188 12.1094 24.2188C5.41991 24.2188 -1.52588e-05 18.7988 -1.52588e-05 12.1094C-1.52588e-05 5.41992 5.41991 0 12.1094 0ZM6.4453 14.2578H12.1094V17.7197C12.1094 18.2422 12.7441 18.5059 13.1103 18.1348L18.6914 12.5244C18.9209 12.2949 18.9209 11.9287 18.6914 11.6992L13.1103 6.08398C12.7392 5.71289 12.1094 5.97656 12.1094 6.49902V9.96094H6.4453C6.12303 9.96094 5.85936 10.2246 5.85936 10.5469V13.6719C5.85936 13.9941 6.12303 14.2578 6.4453 14.2578Z" fill="#283C8C"/>
</svg>
