<svg width="124" height="31" viewBox="0 0 124 31" fill="none" xmlns="http://www.w3.org/2000/svg">
<g clip-path="url(#clip0_55_1146)">
<path d="M65.804 12.3562C65.804 13.0449 66.379 13.6039 67.0873 13.6039H82.6621C86.5213 13.6039 89.6583 10.554 89.6583 6.80193C89.6583 3.04991 86.5213 0 82.6621 0H67.0873C66.379 0 65.804 0.559002 65.804 1.24769C65.804 1.93638 66.379 2.49538 67.0873 2.49538H82.6621C85.1046 2.49538 87.0917 4.42729 87.0917 6.8064C87.0917 9.18552 85.1046 11.113 82.6621 11.113H67.0873C66.379 11.113 65.804 11.672 65.804 12.3606V12.3562Z" fill="#6F88C2"/>
<path d="M68.9457 5.90752H83.8718C84.3134 5.90752 84.6538 5.46032 84.6538 4.88791C84.6538 4.31549 84.3088 3.86829 83.8718 3.86829H68.9457C68.5041 3.86829 68.1637 4.31549 68.1637 4.88791C68.1637 5.46032 68.5087 5.90752 68.9457 5.90752Z" fill="#6F88C2"/>
<path d="M68.9457 9.7311H83.8718C84.3134 9.7311 84.6538 9.2839 84.6538 8.71148C84.6538 8.13906 84.3088 7.69186 83.8718 7.69186H68.9457C68.5041 7.69186 68.1637 8.13906 68.1637 8.71148C68.1637 9.2839 68.5087 9.7311 68.9457 9.7311Z" fill="#6F88C2"/>
<path d="M89.3271 15.0528H67.0873C66.379 15.0528 65.804 15.6118 65.804 16.3005C65.804 16.9892 66.379 17.5482 67.0873 17.5482H89.3271C91.7696 17.5482 93.7613 19.4801 93.7613 21.8592C93.7613 24.2383 91.7742 26.1657 89.3271 26.1657H67.0873C66.379 26.1657 65.804 26.7248 65.804 27.4134C65.804 28.1021 66.379 28.6611 67.0873 28.6611H89.3271C93.1863 28.6611 96.3233 25.6112 96.3233 21.8592C96.3233 18.1072 93.1863 15.0573 89.3271 15.0573V15.0528Z" fill="#6F88C2"/>
<path d="M68.9411 24.7839H89.2719C89.7135 24.7839 90.0493 24.3456 90.0493 23.7643C90.0493 23.1829 89.7181 22.7447 89.2719 22.7447H68.9411C68.4995 22.7447 68.1637 23.1829 68.1637 23.7643C68.1637 24.3456 68.4949 24.7839 68.9411 24.7839Z" fill="#6F88C2"/>
<path d="M68.9411 20.9603H89.2719C89.7135 20.9603 90.0493 20.5221 90.0493 19.9407C90.0493 19.3593 89.7181 18.9211 89.2719 18.9211H68.9411C68.4995 18.9211 68.1637 19.3593 68.1637 19.9407C68.1637 20.5221 68.4949 20.9603 68.9411 20.9603Z" fill="#6F88C2"/>
<path d="M12.0605 27.0915C8.49113 27.0915 5.58869 25.96 3.35322 23.6972C1.11774 21.4344 0 18.5052 0 14.9097C0 11.1264 1.13154 8.04516 3.39001 5.67052C5.64849 3.29588 8.67053 2.10632 12.4607 2.10632C15.9979 2.10632 18.859 3.2288 21.0576 5.47822C23.2517 7.72317 24.3511 10.706 24.3511 14.4267C24.3511 16.4481 24.0659 18.295 23.4955 19.972C22.9251 21.649 22.0144 23.004 20.7679 24.0505L24.5443 27.4537L20.2987 31.0089L16.1911 26.6264C15.6483 26.7605 14.9906 26.8723 14.2178 26.9618C13.4451 27.0512 12.7275 27.0959 12.0697 27.0959L12.0605 27.0915ZM12.3043 6.79299C10.354 6.79299 8.79472 7.50852 7.63558 8.93956C6.47645 10.3706 5.89228 12.2667 5.89228 14.628C5.89228 16.9892 6.47185 18.9122 7.62638 20.3074C8.78092 21.7027 10.2942 22.3959 12.1663 22.3959C14.0384 22.3959 15.6391 21.7116 16.7661 20.3477C17.893 18.9837 18.4542 17.1099 18.4542 14.7308C18.4542 12.3517 17.9114 10.3035 16.8259 8.89931C15.7403 7.4951 14.2316 6.79299 12.3043 6.79299Z" fill="#283C8C"/>
<path d="M48.7297 16.2111C48.7297 19.8379 47.8604 22.5613 46.1217 24.3725C44.383 26.1881 41.7749 27.0915 38.2975 27.0915C34.8201 27.0915 32.396 26.206 30.7079 24.4396C29.0198 22.6686 28.178 19.9944 28.178 16.4123V2.51328H33.7943V16.533C33.7943 18.4873 34.1853 19.9541 34.9719 20.929C35.7584 21.9039 36.936 22.3959 38.5091 22.3959C40.0822 22.3959 41.2137 21.9263 41.9819 20.9827C42.75 20.0391 43.1364 18.6259 43.1364 16.7388V2.51328H48.7343V16.2111H48.7297Z" fill="#283C8C"/>
<path d="M59.7369 26.6711H54.139V2.51328H59.7369V26.6756V26.6711Z" fill="#283C8C"/>
<path d="M111.714 27.0915C108.154 27.0915 105.256 25.9645 103.016 23.7151C100.776 21.4612 99.6536 18.5276 99.6536 14.9097C99.6536 11.0906 100.79 8.00044 103.067 5.64369C105.343 3.28693 108.356 2.10632 112.114 2.10632C115.661 2.10632 118.531 3.23327 120.72 5.49164C122.91 7.75 124.005 10.7239 124.005 14.4222C124.005 18.1206 122.868 21.2778 120.601 23.6033C118.333 25.9287 115.371 27.0915 111.719 27.0915H111.714ZM111.82 22.3914C113.747 22.3914 115.279 21.7161 116.41 20.3611C117.542 19.0061 118.108 17.1278 118.108 14.7263C118.108 12.3249 117.56 10.2722 116.461 8.88142C115.362 7.49063 113.862 6.79299 111.953 6.79299C110.044 6.79299 108.43 7.50852 107.275 8.93956C106.121 10.3706 105.541 12.2667 105.541 14.628C105.541 16.9892 106.121 18.9122 107.275 20.3074C108.43 21.6982 109.943 22.3959 111.815 22.3959L111.82 22.3914Z" fill="#283C8C"/>
</g>
<defs>
<clipPath id="clip0_55_1146">
<rect width="124" height="31" fill="white"/>
</clipPath>
</defs>
</svg>
