<svg width="28" height="31" viewBox="0 0 28 31" fill="none" xmlns="http://www.w3.org/2000/svg">
<path fill-rule="evenodd" clip-rule="evenodd" d="M27.8007 13.9676C27.8007 21.0068 22.4501 26.796 15.5943 30.2919C14.7232 30.736 13.6929 30.736 12.8217 30.2919C5.96594 26.796 0.615387 21.0068 0.615387 13.9676C0.615387 6.46063 6.70102 0.375 14.208 0.375C21.7151 0.375 27.8007 6.46063 27.8007 13.9676ZM14.2251 18.9798C17.7722 18.9798 20.6476 16.1045 20.6476 12.5573C20.6476 9.01027 17.7722 6.13479 14.2251 6.13479C10.6779 6.13479 7.80253 9.01027 7.80253 12.5573C7.80253 16.1045 10.6779 18.9798 14.2251 18.9798Z" fill="#EFEFEF"/>
</svg>
