<svg width="20" height="21" viewBox="0 0 20 21" fill="none" xmlns="http://www.w3.org/2000/svg">
<path d="M19.3678 12.9294L17.6749 11.9267C17.8458 10.981 17.8458 10.0109 17.6749 9.06528L19.3678 8.06256C19.5625 7.94843 19.65 7.71202 19.5864 7.49191C19.1453 6.04083 18.3942 4.72834 17.4126 3.63595C17.2616 3.46883 17.0152 3.42807 16.8244 3.5422L15.1315 4.54491C14.4201 3.9172 13.6015 3.43215 12.7153 3.11421V1.11286C12.7153 0.8846 12.5603 0.684873 12.3417 0.63596C10.8832 0.301722 9.389 0.318026 8.00206 0.63596C7.78349 0.684873 7.6285 0.8846 7.6285 1.11286V3.11829C6.74626 3.4403 5.92761 3.92535 5.21228 4.54899L3.52332 3.54628C3.32859 3.43215 3.08617 3.46883 2.93516 3.64003C1.95357 4.72834 1.20248 6.04083 0.761358 7.49599C0.6938 7.7161 0.785202 7.95251 0.97993 8.06664L2.67287 9.06935C2.50199 10.015 2.50199 10.9851 2.67287 11.9308L0.97993 12.9335C0.785202 13.0476 0.697774 13.284 0.761358 13.5041C1.20248 14.9552 1.95357 16.2677 2.93516 17.3601C3.08617 17.5272 3.33256 17.568 3.52332 17.4538L5.21626 16.4511C5.92761 17.0788 6.74626 17.5639 7.63247 17.8818V19.8872C7.63247 20.1155 7.78746 20.3152 8.00603 20.3641C9.4645 20.6984 10.9587 20.6821 12.3457 20.3641C12.5643 20.3152 12.7192 20.1155 12.7192 19.8872V17.8818C13.6015 17.5598 14.4201 17.0748 15.1355 16.4511L16.8284 17.4538C17.0231 17.568 17.2655 17.5313 17.4166 17.3601C18.3981 16.2718 19.1492 14.9593 19.5904 13.5041C19.65 13.2799 19.5625 13.0435 19.3678 12.9294ZM10.1719 13.7568C8.41933 13.7568 6.99265 12.2935 6.99265 10.496C6.99265 8.69843 8.41933 7.23512 10.1719 7.23512C11.9244 7.23512 13.3511 8.69843 13.3511 10.496C13.3511 12.2935 11.9244 13.7568 10.1719 13.7568Z" fill="#283C8C"/>
</svg>
