<svg width="29" height="31" viewBox="0 0 29 31" fill="none" xmlns="http://www.w3.org/2000/svg">
<path fill-rule="evenodd" clip-rule="evenodd" d="M19.1816 2.72805C16.594 -0.20456 12.0213 -0.204557 9.43374 2.72806L3.73392 9.18786C2.47125 9.59361 1.50452 10.6552 1.27219 11.9778L1.25986 11.9918C0.813047 12.4982 0.769841 13.2217 1.10564 13.7687L0.012882 26.5974C-0.164754 28.6828 1.51743 30.4714 3.65645 30.4714H24.9589C27.098 30.4714 28.7802 28.6828 28.6025 26.5974L27.5097 13.7688C27.8455 13.2217 27.8024 12.4982 27.3555 11.9918L27.3431 11.9777C27.1107 10.6551 26.1441 9.59365 24.8815 9.18788L19.1816 2.72805ZM20.7236 9.00987L16.9321 4.71292C15.5388 3.13382 13.0766 3.13382 11.6833 4.71292L7.89183 9.00987H20.7236Z" fill="white"/>
</svg>
