<svg width="211" height="131" viewBox="0 0 211 131" fill="none" xmlns="http://www.w3.org/2000/svg">
<g clip-path="url(#clip0_69_2492)">
<path d="M111.841 53.2773C112.101 54.3234 111.517 55.3631 110.541 55.6016C109.565 55.8369 108.563 55.1819 108.303 54.1358C108.043 53.0897 108.628 52.05 109.604 51.8115C110.579 51.5762 111.581 52.2312 111.841 53.2773Z" fill="#7D97D3"/>
<path d="M95.6702 71.5027C95.9302 72.5487 95.3459 73.5885 94.3699 73.8269C93.394 74.0622 92.3923 73.4072 92.1323 72.3611C91.8722 71.3151 92.4565 70.2753 93.4325 70.0369C94.4085 69.8016 95.4101 70.4566 95.6702 71.5027Z" fill="#7D97D3"/>
<path d="M106.724 37.6084C104.855 33.5004 101.882 28.8136 96.7713 28.7055C92.0359 28.6038 89.6442 33.1347 88.4852 37.0361C86.9956 42.0503 86.8992 47.3538 87.5766 52.5079C88.4531 59.1787 90.6844 65.5728 92.8867 71.9034C93.2463 72.9399 94.9382 72.5425 94.5722 71.4964C91.3778 62.3138 88.0678 52.7528 89.092 42.8929C89.4901 39.0583 90.5014 33.0266 94.3282 30.9885C98.9833 28.5116 102.916 33.7229 104.659 37.2777C107.199 42.4636 108.772 48.1201 109.379 53.8465C109.494 54.9308 111.231 54.9944 111.116 53.8974C110.518 48.2632 109.077 42.7816 106.727 37.6116L106.724 37.6084Z" fill="white"/>
<path d="M75.5472 86.7013L93.6445 83.8205L132.757 38.3875L113.145 45.1027L75.5472 86.7013Z" fill="#0E2A3A"/>
<path d="M53.5204 50.8642L83.9328 46.9978L110.563 75.9384L79.9872 81.5281L53.5204 50.8642Z" fill="#3D0F15"/>
<path d="M112.031 68.9973C109.645 70.7556 109.08 75.4233 109.08 75.4233L79.7721 80.7459L81.6213 73.1435L112.027 68.9973H112.031Z" fill="white"/>
<path d="M113.687 69.4998L112.785 70.8606L83.6696 75.8494C81.4993 78.0051 81.0627 81.331 81.0627 81.331L79.9872 81.5281L79.74 74.6602L83.7562 72.921L113.687 69.4998Z" fill="#3D0F15"/>
<path d="M56.644 44.4286L87.0533 40.5623L113.687 69.4997L83.1109 75.0926L56.644 44.4286Z" fill="#C63454"/>
<path d="M65.187 47.2362L84.8317 43.8181L90.2413 50.0374L70.6929 54.0087L65.187 47.2362Z" fill="#89121D"/>
<path d="M60.0856 43.9897L58.6345 44.1742L84.6647 74.8063L86.1383 74.536L60.0856 43.9897Z" fill="#FF617B"/>
<path d="M56.6441 44.4287C53.1704 46.7244 53.5203 50.8674 53.5203 50.8674L79.9872 81.5313C79.9872 81.5313 80.6967 76.6157 83.1109 75.0926L56.6441 44.4287Z" fill="#C63454"/>
<path d="M113.305 30.3622L128.263 16.8108L131.036 46.5526L114.015 58.9689L113.305 30.3622Z" fill="#D6830B"/>
<path d="M124.256 15.8379C125.681 17.6948 127.919 17.698 127.919 17.698L130.182 46.1711L114.021 58.6415C110.467 58.721 110.031 56.2791 110.031 56.2791L124.256 15.8347V15.8379Z" fill="white"/>
<path d="M111.164 56.298L127.402 44.5272L124.561 14.9157L123.871 14.6709L109.62 56.8322C109.62 56.8322 111.01 59.1152 114.015 58.9721L115.607 57.8115C114.095 58.368 111.594 57.5508 111.164 56.3012V56.298Z" fill="#D6830B"/>
<path d="M108.91 28.2191L123.867 14.6677L126.641 44.4128L109.62 56.829L108.91 28.2191Z" fill="#E5B14A"/>
<path d="M119.273 18.833L121.684 48.0279L126.641 44.4128L123.867 14.6677L119.273 18.833Z" fill="#F7D27F"/>
<path d="M120.728 22.925C120.702 22.6929 120.419 22.588 120.246 22.747L111.815 30.5052C111.748 30.5656 111.716 30.6578 111.726 30.7468L112.233 35.0679C112.258 35.2777 112.496 35.389 112.676 35.2746L121.312 29.7675C121.405 29.7103 121.453 29.6054 121.444 29.4972L120.728 22.9219V22.925Z" fill="#D6830B"/>
<path d="M93.6444 83.8206L116.048 114.914L138.452 146.007C138.452 146.007 158.762 113.133 176.978 87.6233L132.757 38.3875L93.6444 83.8206Z" fill="#283C8C"/>
<path d="M75.5472 86.7013L109.366 147.46L120.368 142.865L138.453 146.007L93.6445 83.8206L75.5472 86.7013Z" fill="#263366"/>
<path d="M126.738 54.3679C126.998 55.414 126.413 56.4537 125.437 56.6922C124.461 56.9306 123.46 56.2725 123.2 55.2264C122.94 54.1803 123.524 53.1406 124.5 52.9021C125.476 52.6668 126.478 53.3218 126.738 54.3679Z" fill="#7D97D3"/>
<path d="M110.567 72.5932C110.827 73.6393 110.243 74.679 109.267 74.9175C108.291 75.1528 107.289 74.4978 107.029 73.4517C106.769 72.4056 107.353 71.3659 108.329 71.1274C109.305 70.8922 110.307 71.5472 110.567 72.5932Z" fill="#7D97D3"/>
<path d="M121.623 38.699C119.755 34.5909 116.782 29.9042 111.671 29.7961C106.936 29.6944 104.544 34.2253 103.385 38.1266C101.895 43.1408 101.799 48.4444 102.476 53.5985C103.353 60.2693 105.584 66.6634 107.786 72.994C108.146 74.0305 109.838 73.6331 109.472 72.587C106.278 63.4043 102.968 53.8433 103.992 43.9834C104.39 40.1488 105.401 34.1172 109.228 32.0791C113.883 29.6022 117.816 34.8135 119.559 38.3683C122.099 43.5542 123.672 49.2107 124.278 54.9371C124.394 56.0213 126.131 56.0849 126.015 54.988C125.418 49.3538 123.977 43.8721 121.627 38.7021L121.623 38.699Z" fill="white"/>
<path d="M82.3951 19.8058L97.2273 39.6209L60.1756 39.2235L47 17.0522L82.3951 19.8058Z" fill="#0E2A3A"/>
<path d="M98.9352 34.893C96.4632 36.381 96.1775 39.0932 96.1775 39.0932L60.7535 38.2379L47.4045 17.1032C47.7545 12.7917 50.8237 12.5691 50.8237 12.5691L98.9352 34.893Z" fill="white"/>
<path d="M50.6567 13.9395L63.1324 35.0806L100.033 35.3795L100.425 34.5751L50.1976 12C50.1976 12 47.2055 13.3927 47 17.0492L48.2328 19.1223C47.7384 17.2241 49.0611 14.2957 50.6567 13.9364V13.9395Z" fill="#0E2A3A"/>
<path d="M85.5927 14.7535L100.425 34.5719L63.3733 34.1713L50.1976 12L85.5927 14.7535Z" fill="#7D97D3"/>
<path d="M82.7931 14.5374L96.5788 34.5306L90.5656 34.4638L77.5858 14.1304L82.7931 14.5374Z" fill="#475888"/>
<path d="M60.6314 12.814L75.7558 34.3048L69.091 34.2349L55.1416 12.3848L60.6314 12.814Z" fill="#475888"/>
<path d="M90.6363 29.7261C90.9284 29.7261 91.0922 29.3954 90.9188 29.1633L82.4079 17.9807C82.3405 17.8917 82.2346 17.8408 82.1222 17.8408L76.7255 17.9108C76.4622 17.914 76.2953 18.1874 76.4141 18.4195L82.119 29.5671C82.18 29.6848 82.302 29.7611 82.4368 29.7579L90.6395 29.7229L90.6363 29.7261Z" fill="white"/>
<path d="M153.429 16.572C156.264 7.32259 169.928 0 169.928 0L174.621 4.65491L153.432 16.572H153.429Z" fill="white"/>
<path d="M153.429 16.5719C154.774 10.0856 150.758 2.05078 150.758 2.05078L149.021 6.96324L153.429 16.5719Z" fill="white"/>
<path d="M141.181 4.46086L147.304 3.68186C152.338 7.34792 153.429 16.5719 153.429 16.5719C160.64 6.9314 176.127 3.02051 176.127 3.02051L182.888 4.39409L170.072 19.7483L151.596 22.3905L141.181 4.45768V4.46086Z" fill="#DBE9FF"/>
<path d="M141.58 4.06998L151.185 16.7915C151.975 17.5451 153.908 18.1619 154.569 17.7994C173.62 7.35767 183.026 3.71387 183.026 3.71387L183.707 4.8617C183.707 4.8617 159.857 21.8439 153.75 19.9647C147.644 18.0824 142.356 6.92525 142.356 6.92525L140.966 3.97459L141.576 4.07634L141.58 4.06998Z" fill="#0E2A3A"/>
<path d="M140.215 2.69312L151.192 17.3129L166.033 55.5124L155.294 41.5604L140.215 2.69312Z" fill="#283C8C"/>
<path d="M154.405 39.7002L155.099 41.6111L155.982 42.724L156.184 42.3806C155.333 41.4871 154.746 39.7701 154.746 39.7701L154.405 39.7002Z" fill="#E5B14A"/>
<path d="M140 2.47053L140.424 2.43237L141.583 4.06986L141.246 4.17161C141.246 4.17161 140.921 4.19386 141.063 4.8743L140.905 4.92199L140.003 2.46735L140 2.47053Z" fill="#E5B14A"/>
<path d="M184.615 3.30029C170.079 9.67536 155.102 18.3556 154.742 18.2825L169.51 56.8382C180.121 53.9193 197.313 46.2947 197.313 46.2947L184.615 3.30029Z" fill="#283C8C"/>
<path d="M184.282 23.4304L180.281 11.5483C180.147 11.1508 179.687 10.9632 179.309 11.1508L161.019 20.308C160.672 20.4829 160.537 20.9026 160.72 21.2428L165.199 29.5924C165.356 29.8849 165.703 30.0248 166.024 29.9231L183.832 24.2984C184.201 24.1808 184.4 23.7897 184.278 23.4272L184.282 23.4304Z" fill="#7D97D3"/>
<path d="M196.68 43.0103L197.74 46.5046L194.577 47.9704L194.285 47.2073C196.215 46.193 196.08 43.3664 196.08 43.3664L196.68 43.0103Z" fill="#E5B14A"/>
<path d="M180.952 4.48959L184.692 3.09058L185.961 6.57222L185.19 6.86157C184.166 4.95063 181.312 5.081 181.312 5.081L180.952 4.48641V4.48959Z" fill="#E5B14A"/>
<path d="M154.742 18.2825C154.742 18.2825 153.169 18.6227 151.192 17.3127L166.033 55.5123C166.033 55.5123 166.791 56.2849 169.51 56.8382L154.742 18.2825Z" fill="#263366"/>
<path d="M11.2986 110.761L11 111.597L34.1697 123.585L36.1666 124.729L54.5399 147.037L89.8355 131.886L90.1404 131.037L11.2986 110.761Z" fill="#161F46"/>
<path d="M37.2966 125.419L54.8545 146.153L90.1404 131.037L70.5086 112.669L37.2966 125.419Z" fill="#283C8C"/>
<path d="M34.1344 123.041L11.2986 110.761L46.0002 98.0969L67.4684 110.882L34.1344 123.041Z" fill="#283C8C"/>
<path d="M67.4684 110.882L34.1344 123.041C34.006 125.426 37.2967 125.419 37.2967 125.419L70.5086 112.666L67.4684 110.882Z" fill="#161F46"/>
<path d="M36.8087 123.979C30.4456 117.607 13.9119 110.539 13.9119 110.539L18.4611 106.392L44.838 96.542C61.0475 101.566 67.9852 111.782 67.9852 111.782C86.6379 119.483 89.0425 126.786 89.0425 126.786L88.5898 130.548L55.2591 144.252C46.8349 129.924 36.8119 123.979 36.8119 123.979H36.8087Z" fill="#7D97D3"/>
<path d="M38.1379 123.066C28.1727 108.529 16.7981 106.675 16.7981 106.675L38.0191 98.8823L47.2555 115.667L38.1411 123.069L38.1379 123.066Z" fill="#AAC8FF"/>
<path d="M38.1378 123.066C35.0814 111.248 18.8398 104.078 18.8398 104.078L48.7483 93C64.6207 98.0524 67.982 111.782 67.982 111.782L38.1378 123.066Z" fill="white"/>
<path d="M44.2248 125.632C40.9437 126.077 37.7494 127.149 34.8728 128.774C35.791 129.085 36.7252 129.429 37.6466 129.74C37.3898 130.414 37.1779 131.101 36.9211 131.775C40.1154 130.166 43.5057 128.948 46.9761 128.074L44.2216 125.629L44.2248 125.632Z" fill="white"/>
<path d="M38.1378 123.066C47.6118 127.126 55.715 139.39 55.715 139.39L89.4342 125.527C83.6746 118.354 67.8504 115.012 67.8504 115.012L38.1378 123.066Z" fill="#AAC8FF"/>
<path d="M67.982 111.782L38.1378 123.066C50.1545 124.999 57.4646 135.734 57.4646 135.734L90.439 122.713C84.7758 115.06 67.982 111.782 67.982 111.782Z" fill="#DBE9FF"/>
<path d="M85.0134 122.274C84.9813 122.274 84.9524 122.262 84.9299 122.239C82.8881 120.061 80.1046 118.227 76.6566 116.783C73.5682 115.489 70.2743 114.624 67.0863 113.785C67.0253 113.769 66.99 113.709 67.0061 113.648C67.0221 113.588 67.0831 113.553 67.1441 113.569C70.3385 114.408 73.642 115.279 76.7433 116.577C80.2202 118.033 83.0293 119.887 85.0937 122.087C85.1354 122.131 85.1322 122.201 85.0872 122.243C85.0648 122.262 85.0391 122.271 85.0134 122.271V122.274Z" fill="#475888"/>
<path d="M80.3551 123.775C80.3262 123.775 80.2973 123.766 80.2748 123.743C75.6389 119.251 69.5391 116.351 63.099 115.578C63.038 115.572 62.993 115.515 63.0026 115.454C63.0091 115.394 63.0669 115.349 63.1279 115.359C69.6161 116.135 75.7641 119.057 80.4353 123.584C80.4803 123.629 80.4803 123.699 80.4353 123.74C80.4128 123.762 80.3872 123.772 80.3583 123.775H80.3551Z" fill="#475888"/>
<path d="M74.1428 126.332C74.1107 126.332 74.0786 126.319 74.0561 126.294C70.1683 121.772 64.5243 118.755 58.5754 118.014C58.5144 118.008 58.4695 117.95 58.4791 117.89C58.4855 117.829 58.5433 117.785 58.6043 117.795C64.6078 118.542 70.3031 121.585 74.2263 126.15C74.268 126.198 74.2616 126.268 74.2134 126.306C74.1942 126.322 74.1685 126.332 74.1428 126.332Z" fill="#475888"/>
<path d="M67.677 129.222C67.6449 129.222 67.6128 129.209 67.5871 129.184C63.7538 124.656 58.4566 121.365 52.6714 119.918C52.6104 119.902 52.5751 119.842 52.5911 119.785C52.6072 119.724 52.665 119.689 52.726 119.705C58.5561 121.161 63.8951 124.478 67.7572 129.041C67.7958 129.088 67.7894 129.158 67.7444 129.196C67.7251 129.212 67.6995 129.222 67.6738 129.222H67.677Z" fill="#475888"/>
<path d="M59.9976 130.751C59.9655 130.751 59.9302 130.738 59.9077 130.71C56.5592 126.707 52.2027 123.594 47.3132 121.708C47.2554 121.686 47.2265 121.623 47.249 121.565C47.2714 121.508 47.3356 121.479 47.3934 121.502C52.3182 123.4 56.7069 126.535 60.0779 130.567C60.1164 130.614 60.11 130.684 60.0618 130.722C60.0425 130.738 60.0169 130.748 59.9944 130.748L59.9976 130.751Z" fill="#475888"/>
<path d="M62.7072 111.219C62.6622 111.219 62.6205 111.194 62.6012 111.152C59.8852 105.009 55.1209 99.8425 49.1913 96.6056C49.1367 96.577 49.1174 96.5071 49.1463 96.4562C49.1752 96.4021 49.2458 96.3831 49.2972 96.4117C55.2718 99.6708 60.0682 104.876 62.8067 111.063C62.8324 111.12 62.8067 111.184 62.7489 111.209C62.7361 111.216 62.72 111.219 62.7072 111.219Z" fill="#475888"/>
<path d="M57.9205 112.787C57.8788 112.787 57.8403 112.764 57.8178 112.726C54.7069 106.73 49.7468 101.566 43.8524 98.1923C43.7978 98.1605 43.7818 98.0938 43.8107 98.0397C43.8428 97.9857 43.9102 97.9698 43.9648 97.9984C49.8944 101.394 54.8867 106.59 58.0168 112.624C58.0457 112.679 58.0233 112.745 57.9687 112.774C57.9526 112.78 57.9366 112.787 57.9205 112.787Z" fill="#475888"/>
<path d="M50.7869 114.945C50.7452 114.945 50.7034 114.923 50.6842 114.885C47.8975 109.403 43.9519 104.386 39.2678 100.37C39.2197 100.329 39.2165 100.259 39.255 100.214C39.2967 100.167 39.3674 100.163 39.4123 100.202C44.1188 104.237 48.0837 109.279 50.8832 114.783C50.9121 114.837 50.8896 114.904 50.835 114.933C50.819 114.939 50.8029 114.945 50.7869 114.945Z" fill="#475888"/>
<path d="M44.0064 117.365C43.9615 117.365 43.9166 117.34 43.9005 117.295C42.7736 114.5 40.979 111.791 38.4171 109.016C36.1473 106.558 33.5565 104.351 31.0459 102.218C30.9978 102.176 30.9946 102.106 31.0331 102.062C31.0748 102.014 31.1454 102.011 31.1904 102.049C33.7042 104.189 36.3014 106.399 38.5808 108.866C41.162 111.661 42.9695 114.392 44.106 117.213C44.1284 117.27 44.0996 117.333 44.045 117.356C44.0321 117.362 44.0193 117.362 44.0064 117.362V117.365Z" fill="#475888"/>
</g>
<defs>
<clipPath id="clip0_69_2492">
<rect width="221" height="131" fill="white" transform="translate(-10)"/>
</clipPath>
</defs>
</svg>
